/* XPM */
static char * C:\Users\Makrochain\Documents\GitHub\artiqox\share\pixmaps\bitcoin16_xpm[] = {
"16 16 202 2",
"  	c None",
". 	c #110F07",
"+ 	c #161407",
"@ 	c #211D0A",
"# 	c #221E0D",
"$ 	c #17150B",
"% 	c #181610",
"& 	c #151204",
"* 	c #1C1905",
"= 	c #463C09",
"- 	c #5E5112",
"; 	c #706221",
"> 	c #847638",
", 	c #90834E",
"' 	c #6C6646",
") 	c #232117",
"! 	c #21211D",
"~ 	c #0F0D05",
"{ 	c #302906",
"] 	c #705F10",
"^ 	c #88751E",
"/ 	c #968434",
"( 	c #7D7036",
"_ 	c #494222",
": 	c #5C5431",
"< 	c #9D946A",
"[ 	c #CEC8A7",
"} 	c #504D44",
"| 	c #21211F",
"1 	c #0C0B06",
"2 	c #372F08",
"3 	c #867319",
"4 	c #867526",
"5 	c #8A7E49",
"6 	c #928759",
"7 	c #8D8663",
"8 	c #7A7662",
"9 	c #47453D",
"0 	c #787465",
"a 	c #FBF8E8",
"b 	c #605F5E",
"c 	c #1F1F21",
"d 	c #252009",
"e 	c #7E6D20",
"f 	c #897931",
"g 	c #827740",
"h 	c #8F8552",
"i 	c #92895F",
"j 	c #B9B18C",
"k 	c #D4CCAD",
"l 	c #CCC7AE",
"m 	c #E3DFCE",
"n 	c #5A5A59",
"o 	c #7F7F7F",
"p 	c #FDFCFB",
"q 	c #3D3C3D",
"r 	c #0D0D0A",
"s 	c #5B5120",
"t 	c #98883D",
"u 	c #887C4A",
"v 	c #968B5E",
"w 	c #99916C",
"x 	c #C6BF9F",
"y 	c #6D695A",
"z 	c #4E4B42",
"A 	c #D3D1C5",
"B 	c #C9C8C5",
"C 	c #FFFFFF",
"D 	c #4F4F52",
"E 	c #B7B4AF",
"F 	c #A6A49D",
"G 	c #121212",
"H 	c #1C1910",
"I 	c #7E723E",
"J 	c #ACA067",
"K 	c #9A9169",
"L 	c #9D9675",
"M 	c #C5BFA4",
"N 	c #DBD6C1",
"O 	c #2C291F",
"P 	c #000000",
"Q 	c #BFBEBC",
"R 	c #FCFDFF",
"S 	c #E3E2E0",
"T 	c #999893",
"U 	c #625E54",
"V 	c #BFBBA7",
"W 	c #272621",
"X 	c #322E1F",
"Y 	c #92885C",
"Z 	c #968F6C",
"` 	c #AAA486",
" .	c #C4BEA8",
"..	c #9B988C",
"+.	c #42413A",
"@.	c #494741",
"#.	c #585859",
"$.	c #474749",
"%.	c #898883",
"&.	c #C6C2B5",
"*.	c #B9B6A4",
"=.	c #4B483D",
"-.	c #9E9878",
";.	c #3B372B",
">.	c #3B382C",
",.	c #A0997A",
"'.	c #4D4A3E",
").	c #B4B0A0",
"!.	c #DAD7CA",
"~.	c #9D9D9A",
"{.	c #1E1E21",
"].	c #4B4B4D",
"^.	c #666666",
"/.	c #121006",
"(.	c #646152",
"_.	c #B5B09B",
":.	c #B3AD8F",
"<.	c #948D69",
"[.	c #8E8558",
"}.	c #23231E",
"|.	c #C2BDAA",
"1.	c #5F5D52",
"2.	c #9F9D98",
"3.	c #FDFCFA",
"4.	c #89898A",
"5.	c #151415",
"6.	c #85837E",
"7.	c #969382",
"8.	c #201F15",
"9.	c #272318",
"0.	c #BAB38F",
"a.	c #9C936A",
"b.	c #AEA167",
"c.	c #7B6F3C",
"d.	c #1F1D11",
"e.	c #0A0A09",
"f.	c #B0AEA6",
"g.	c #B0AFAA",
"h.	c #505053",
"i.	c #969592",
"j.	c #626058",
"k.	c #E6E2D1",
"l.	c #EFE8CD",
"m.	c #817B67",
"n.	c #4D4732",
"o.	c #A89D6D",
"p.	c #877C49",
"q.	c #97873D",
"r.	c #594E1D",
"s.	c #100F0E",
"t.	c #414041",
"u.	c #767676",
"v.	c #5D5C5B",
"w.	c #F0EBD9",
"x.	c #E7E1C6",
"y.	c #AEA88A",
"z.	c #98906E",
"A.	c #AAA073",
"B.	c #A29763",
"C.	c #7C703A",
"D.	c #897A31",
"E.	c #7C6C1F",
"F.	c #262009",
"G.	c #141315",
"H.	c #6F6E6D",
"I.	c #FEFAEA",
"J.	c #6E6B5C",
"K.	c #4A4940",
"L.	c #7F7A67",
"M.	c #8E8764",
"N.	c #918759",
"O.	c #897E48",
"P.	c #857427",
"Q.	c #867219",
"R.	c #352D08",
"S.	c #100F0A",
"T.	c #181816",
"U.	c #615E55",
"V.	c #D3CCAB",
"W.	c #989066",
"X.	c #595130",
"Y.	c #494221",
"Z.	c #958433",
"`.	c #88751D",
" +	c #716011",
".+	c #332B07",
"++	c #141103",
"@+	c #100F0C",
"#+	c #2B281F",
"$+	c #7A7351",
"%+	c #938852",
"&+	c #837639",
"*+	c #716322",
"=+	c #615313",
"-+	c #4B3F0B",
";+	c #1F1A05",
">+	c #0E0E06",
",+	c #0C0B07",
"'+	c #23200E",
")+	c #221D09",
"!+	c #161406",
"~+	c #0B0A05",
"          . + @ # $ %           ",
"      & * = - ; > , ' ) !       ",
"    ~ { ] ^ / ( _ : < [ } |     ",
"  1 2 3 4 ( 5 6 7 8 9 0 a b c   ",
"  d e f g h i j k l m n o p q   ",
"r s t u v w x y z A B C D E F G ",
"H I J K L M N O P Q R S T U V W ",
"X Y Z `  ...+.@.#.$.%.&.*.=.-.;.",
">.,.'.).!.~.{.].^./.(._.:.<.[.X ",
"}.|.1.2.3.4.5.6.7.8.9.0.a.b.c.d.",
"e.f.g.h.C i.j.k.l.m.n.o.p.q.r.s.",
"  t.C u.v.w.x.y.z.A.B.C.D.E.F.  ",
"  G.H.I.J.K.L.M.N.O.( P.Q.R.S.  ",
"    T.U.V.W.X.Y.( Z.`. +.+++    ",
"      @+#+$+%+&+*+=+-+;+>+      ",
"          ,+$ '+)+!+~+          "};
