/* XPM */
static char * C:\Users\Makrochain\Documents\GitHub\artiqox\share\pixmaps\bitcoin32_xpm[] = {
"32 32 754 2",
"  	c None",
". 	c #201D0D",
"+ 	c #26210D",
"@ 	c #29250E",
"# 	c #2B250F",
"$ 	c #2C2712",
"% 	c #2E2A16",
"& 	c #2D2A18",
"* 	c #2C2A1D",
"= 	c #211C09",
"- 	c #272108",
"; 	c #241F07",
"> 	c #201B07",
", 	c #1D1A08",
"' 	c #1A1708",
") 	c #1A160A",
"! 	c #1B170B",
"~ 	c #1A180B",
"{ 	c #1F1C0E",
"] 	c #242011",
"^ 	c #2A2717",
"/ 	c #363323",
"( 	c #38352A",
"_ 	c #241F09",
": 	c #272206",
"< 	c #221E06",
"[ 	c #191507",
"} 	c #221E0A",
"| 	c #312A0D",
"1 	c #4B4213",
"2 	c #60551B",
"3 	c #645821",
"4 	c #665B26",
"5 	c #685D2D",
"6 	c #574E2B",
"7 	c #3A3522",
"8 	c #29261A",
"9 	c #1D1C12",
"0 	c #2C291C",
"a 	c #3D392C",
"b 	c #444239",
"c 	c #272105",
"d 	c #141306",
"e 	c #29240A",
"f 	c #51460F",
"g 	c #756415",
"h 	c #83711C",
"i 	c #847322",
"j 	c #857427",
"k 	c #9C8A3A",
"l 	c #AD9B4A",
"m 	c #AB9B51",
"n 	c #AA9B58",
"o 	c #AB9E60",
"p 	c #968C5B",
"q 	c #6C674A",
"r 	c #3A382C",
"s 	c #191814",
"t 	c #37352A",
"u 	c #424139",
"v 	c #292306",
"w 	c #231E06",
"x 	c #141309",
"y 	c #493F0D",
"z 	c #7C6912",
"A 	c #847118",
"B 	c #7D6C1E",
"C 	c #7B6B24",
"D 	c #7B6C2B",
"E 	c #857637",
"F 	c #625729",
"G 	c #453F21",
"H 	c #655E36",
"I 	c #8F8554",
"J 	c #B0A570",
"K 	c #C4B885",
"L 	c #C6BC8B",
"M 	c #B2AA85",
"N 	c #6E6B5A",
"O 	c #1D1D1A",
"P 	c #34322B",
"Q 	c #4C4B44",
"R 	c #1D1907",
"S 	c #1F1B0B",
"T 	c #6C5C10",
"U 	c #897316",
"V 	c #78671B",
"W 	c #736522",
"X 	c #796B29",
"Y 	c #7D6F30",
"Z 	c #837639",
"` 	c #968A4B",
" .	c #4C4527",
"..	c #16150B",
"+.	c #1A1709",
"@.	c #0A0904",
"#.	c #1D1A0F",
"$.	c #605B44",
"%.	c #B0AA89",
"&.	c #D8D0AD",
"*.	c #DAD3B3",
"=.	c #A9A591",
"-.	c #2D2C29",
";.	c #292925",
">.	c #53524E",
",.	c #221D06",
"'.	c #211E0C",
").	c #736313",
"!.	c #867319",
"~.	c #72631F",
"{.	c #766826",
"].	c #7D6F2D",
"^.	c #807235",
"/.	c #84783D",
"(.	c #877B45",
"_.	c #8C804D",
":.	c #9C905D",
"<.	c #A49967",
"[.	c #988F67",
"}.	c #857F61",
"|.	c #54513F",
"1.	c #0D0D09",
"2.	c #121109",
"3.	c #7F7C6A",
"4.	c #DCD8C2",
"5.	c #EAE4D0",
"6.	c #BCB9AC",
"7.	c #31322F",
"8.	c #363534",
"9.	c #4B4A49",
"0.	c #1D1A0A",
"a.	c #272208",
"b.	c #1C190C",
"c.	c #766518",
"d.	c #86741D",
"e.	c #736523",
"f.	c #7A6C2A",
"g.	c #7F7132",
"h.	c #83763A",
"i.	c #877A43",
"j.	c #8C804B",
"k.	c #908555",
"l.	c #94895C",
"m.	c #9B9167",
"n.	c #A39B73",
"o.	c #B0A982",
"p.	c #BFB792",
"q.	c #CDC6A5",
"r.	c #C5C0A4",
"s.	c #615F54",
"t.	c #000000",
"u.	c #56554D",
"v.	c #E0DDD2",
"w.	c #F5F2E8",
"x.	c #C2C0BA",
"y.	c #282727",
"z.	c #434343",
"A.	c #464647",
"B.	c #29240B",
"C.	c #18150B",
"D.	c #594F18",
"E.	c #8C7A22",
"F.	c #756727",
"G.	c #7D6F2F",
"H.	c #817336",
"I.	c #84783E",
"J.	c #897E47",
"K.	c #8E8250",
"L.	c #928858",
"M.	c #988D63",
"N.	c #9C936B",
"O.	c #9E9672",
"P.	c #A19A79",
"Q.	c #A59F83",
"R.	c #A7A28A",
"S.	c #AFAA95",
"T.	c #C7C2AD",
"U.	c #EBE7D4",
"V.	c #A4A197",
"W.	c #504F4C",
"X.	c #ECEBE5",
"Y.	c #FFFEFB",
"Z.	c #989799",
"`.	c #212222",
" +	c #4E4D4C",
".+	c #1E1A0C",
"++	c #221F0C",
"@+	c #3B3416",
"#+	c #8C7A27",
"$+	c #7D6E2B",
"%+	c #7E7134",
"&+	c #83773C",
"*+	c #887C44",
"=+	c #8C814C",
"-+	c #908556",
";+	c #958C5F",
">+	c #9B9168",
",+	c #9B946E",
"'+	c #A29B79",
")+	c #C8C1A1",
"!+	c #D4CCAF",
"~+	c #C4BEA6",
"{+	c #AFAA97",
"]+	c #B9B6A5",
"^+	c #B9B6AA",
"/+	c #BDBAB0",
"(+	c #F3F1E7",
"_+	c #B2B0AC",
":+	c #7B7B7A",
"<+	c #FBFAFB",
"[+	c #ECECEA",
"}+	c #595957",
"|+	c #363433",
"1+	c #403F3E",
"2+	c #282411",
"3+	c #1E1C0F",
"4+	c #6E6227",
"5+	c #8D7E33",
"6+	c #7F7238",
"7+	c #867940",
"8+	c #8A7E49",
"9+	c #8F8352",
"0+	c #93895B",
"a+	c #988E63",
"b+	c #9C946D",
"c+	c #A09975",
"d+	c #A9A283",
"e+	c #B9B295",
"f+	c #797661",
"g+	c #6D695B",
"h+	c #A7A391",
"i+	c #CCC8BA",
"j+	c #BBB8AE",
"k+	c #C3C1B8",
"l+	c #C4C2BB",
"m+	c #C4C3BF",
"n+	c #FFFFFD",
"o+	c #858686",
"p+	c #040305",
"q+	c #BAB8B6",
"r+	c #FDFBF3",
"s+	c #A8A6A1",
"t+	c #272524",
"u+	c #444340",
"v+	c #262211",
"w+	c #35301B",
"x+	c #8F8039",
"y+	c #887C3E",
"z+	c #897C46",
"A+	c #8D824E",
"B+	c #978C60",
"C+	c #9B916A",
"D+	c #A09872",
"E+	c #A49D7D",
"F+	c #A7A083",
"G+	c #C9C3AA",
"H+	c #9C9680",
"I+	c #434033",
"J+	c #DBD9CE",
"K+	c #C8C6BF",
"L+	c #C8C6C1",
"M+	c #CBCAC8",
"N+	c #CBCBCB",
"O+	c #DADADA",
"P+	c #262626",
"Q+	c #454440",
"R+	c #EBE7DD",
"S+	c #DAD6C9",
"T+	c #45443F",
"U+	c #353430",
"V+	c #211E13",
"W+	c #211F12",
"X+	c #58512B",
"Y+	c #978948",
"Z+	c #897E4A",
"`+	c #908554",
" @	c #948A5C",
".@	c #999066",
"+@	c #9E956E",
"@@	c #A29B78",
"#@	c #A69F80",
"$@	c #AAA488",
"%@	c #ABA58E",
"&@	c #D5D0BB",
"*@	c #5D594A",
"=@	c #0B0700",
"-@	c #272413",
";@	c #201E11",
">@	c #B1B0A9",
",@	c #E0DFDD",
"'@	c #C4C3C3",
")@	c #CCCCCD",
"!@	c #CECDCD",
"~@	c #C5C4C1",
"{@	c #E9E7E0",
"]@	c #84827E",
"^@	c #0C0B0A",
"/@	c #B5B2A6",
"(@	c #E4DFCA",
"_@	c #6F6E63",
":@	c #292724",
"<@	c #373632",
"[@	c #252116",
"}@	c #262319",
"|@	c #71673C",
"1@	c #9E9157",
"2@	c #8E8457",
"3@	c #958D62",
"4@	c #9C926B",
"5@	c #A59E7D",
"6@	c #A6A083",
"7@	c #B0AB91",
"8@	c #CECAB4",
"9@	c #EAE6D4",
"0@	c #C6C2B3",
"a@	c #1D1A0B",
"b@	c #423F32",
"c@	c #6C6A62",
"d@	c #15140D",
"e@	c #6B6966",
"f@	c #FFFFFF",
"g@	c #F2F2F2",
"h@	c #E4E3E1",
"i@	c #C8C6C2",
"j@	c #BFBEB7",
"k@	c #D3D1C6",
"l@	c #B6B3A7",
"m@	c #1A1916",
"n@	c #787568",
"o@	c #E2DCC0",
"p@	c #8A8673",
"q@	c #262520",
"r@	c #3A3931",
"s@	c #282619",
"t@	c #2E2C1F",
"u@	c #80764D",
"v@	c #9E9462",
"w@	c #AEA478",
"x@	c #B5AB82",
"y@	c #9F9876",
"z@	c #A7A082",
"A@	c #ABA58B",
"B@	c #B5B09A",
"C@	c #B3AE9A",
"D@	c #888470",
"E@	c #A5A292",
"F@	c #716F61",
"G@	c #131108",
"H@	c #5B5952",
"I@	c #8B8A86",
"J@	c #2D2D2C",
"K@	c #3A3A3B",
"L@	c #ABAAA9",
"M@	c #A9A8A4",
"N@	c #A2A19A",
"O@	c #C5C2BA",
"P@	c #C1BEB3",
"Q@	c #C3C0B1",
"R@	c #BFBAA8",
"S@	c #2D2C26",
"T@	c #524F42",
"U@	c #D4CCAB",
"V@	c #9A9478",
"W@	c #2E2D24",
"X@	c #343128",
"Y@	c #2A291D",
"Z@	c #353224",
"`@	c #918760",
" #	c #B3AA7D",
".#	c #6A654C",
"+#	c #77725B",
"@#	c #B8B193",
"##	c #AFAA91",
"$#	c #B2AD98",
"%#	c #D0CBBA",
"&#	c #AAA697",
"*#	c #020100",
"=#	c #302E25",
"-#	c #41403A",
";#	c #252523",
">#	c #222121",
",#	c #454544",
"'#	c #2A2925",
")#	c #19170F",
"!#	c #C3C0B2",
"~#	c #C5C1AF",
"{#	c #B6B29E",
"]#	c #C8C2A8",
"^#	c #302E27",
"/#	c #23221A",
"(#	c #C3BA93",
"_#	c #978F6C",
":#	c #312E24",
"<#	c #2C2A1F",
"[#	c #373529",
"}#	c #9A926F",
"|#	c #C5BD94",
"1#	c #29271F",
"2#	c #2B2A24",
"3#	c #C5BFA6",
"4#	c #B9B4A0",
"5#	c #BAB6A5",
"6#	c #BFBCB0",
"7#	c #C2BFB5",
"8#	c #C1C1BC",
"9#	c #8F8E87",
"0#	c #1E1D1A",
"a#	c #403F3F",
"b#	c #BFBFBE",
"c#	c #D3D2D2",
"d#	c #8B8A87",
"e#	c #1E1C17",
"f#	c #3D3B34",
"g#	c #ADAB9E",
"h#	c #BBB8A8",
"i#	c #B7B3A1",
"j#	c #B3AF9A",
"k#	c #AFA990",
"l#	c #BCB696",
"m#	c #6F6B55",
"n#	c #5F5B43",
"o#	c #B5AC7E",
"p#	c #8E855D",
"q#	c #2F2C20",
"r#	c #2E2C21",
"s#	c #2E2B23",
"t#	c #34332A",
"u#	c #958F75",
"v#	c #D6CEAC",
"w#	c #4B493C",
"x#	c #35332C",
"y#	c #C6C2B0",
"z#	c #C1BDAF",
"A#	c #BFBCB2",
"B#	c #CBCAC1",
"C#	c #C0BFB8",
"D#	c #8E8E8C",
"E#	c #72706E",
"F#	c #2C2B2C",
"G#	c #3D3D3E",
"H#	c #8C8B88",
"I#	c #8F8F8C",
"J#	c #676560",
"K#	c #1E1D13",
"L#	c #333022",
"M#	c #7A7765",
"N#	c #8A8774",
"O#	c #B0AA93",
"P#	c #AFA98F",
"Q#	c #A7A081",
"R#	c #B3A980",
"S#	c #ADA477",
"T#	c #9F9462",
"U#	c #857B4E",
"V#	c #29271B",
"W#	c #2E2B1D",
"X#	c #2D2C25",
"Y#	c #2C2C26",
"Z#	c #8E8976",
"`#	c #E3DCC0",
" $	c #6A685C",
".$	c #1F1E1A",
"+$	c #BCB9AD",
"@$	c #D1CFC4",
"#$	c #DEDDD8",
"$$	c #BAB9B7",
"%$	c #151512",
"&$	c #2A2A2B",
"*$	c #474747",
"=$	c #383834",
"-$	c #1F1E18",
";$	c #16140A",
">$	c #201E12",
",$	c #2D2A1A",
"'$	c #020000",
")$	c #1C190A",
"!$	c #ADA688",
"~$	c #AEA786",
"{$	c #A09774",
"]$	c #9B926A",
"^$	c #908658",
"/$	c #9D9057",
"($	c #6E653B",
"_$	c #201E14",
":$	c #302D1C",
"<$	c #2B2A26",
"[$	c #2A2924",
"}$	c #7A776B",
"|$	c #E4DFCB",
"1$	c #B3AFA3",
"2$	c #080806",
"3$	c #8C8B86",
"4$	c #E8E6DF",
"5$	c #C4C3C1",
"6$	c #C7C6C7",
"7$	c #EFEEEF",
"8$	c #1C1B18",
"9$	c #3A3935",
"0$	c #C8C6BD",
"a$	c #DAD8CC",
"b$	c #C7C4B4",
"c$	c #DFDBC8",
"d$	c #95917B",
"e$	c #191407",
"f$	c #B1AA87",
"g$	c #B4AD89",
"h$	c #9B926C",
"i$	c #999065",
"j$	c #948A5B",
"k$	c #8F8453",
"l$	c #544C28",
"m$	c #211E12",
"n$	c #292719",
"o$	c #4D4C47",
"p$	c #DDDACD",
"q$	c #E6E3D9",
"r$	c #3C3B39",
"s$	c #313130",
"t$	c #F0EFED",
"u$	c #D6D6D6",
"v$	c #D2D2D2",
"w$	c #E3E3DF",
"x$	c #4B4946",
"y$	c #646359",
"z$	c #EBE8DC",
"A$	c #C9C4B5",
"B$	c #C3BEAB",
"C$	c #CBC7B0",
"D$	c #CDC8AA",
"E$	c #19150D",
"F$	c #635D45",
"G$	c #B8AE81",
"H$	c #958B5F",
"I$	c #918758",
"J$	c #877C45",
"K$	c #8F7F38",
"L$	c #332E18",
"M$	c #3B3A36",
"N$	c #2E2D2A",
"O$	c #AFADA7",
"P$	c #FDFBF5",
"Q$	c #B0B0AE",
"R$	c #000001",
"S$	c #949493",
"T$	c #FEFCFA",
"U$	c #CDCBC8",
"V$	c #BEBDB7",
"W$	c #6E6B62",
"X$	c #717066",
"Y$	c #AFAC9C",
"Z$	c #B0AB96",
"`$	c #ADA88F",
" %	c #B5AD8C",
".%	c #89805E",
"+%	c #5A543D",
"@%	c #605A3B",
"#%	c #988E5E",
"$%	c #918653",
"%%	c #8A7E48",
"&%	c #867A40",
"*%	c #7E7238",
"=%	c #8E7D33",
"-%	c #6E6125",
";%	c #1B1A0E",
">%	c #2B2812",
",%	c #353432",
"'%	c #646462",
")%	c #F1F1EF",
"!%	c #F8F7F7",
"~%	c #6D6D6E",
"{%	c #BDBCB7",
"]%	c #EDEAE1",
"^%	c #BAB8AE",
"/%	c #DEDACC",
"(%	c #E4E0CE",
"_%	c #C2BEAA",
":%	c #ABA58D",
"<%	c #ACA78C",
"[%	c #A8A183",
"}%	c #A29A79",
"|%	c #9A916D",
"1%	c #AFA57A",
"2%	c #BAAE7A",
"3%	c #A49964",
"4%	c #887D49",
"5%	c #877B43",
"6%	c #7E7133",
"7%	c #7C6E2C",
"8%	c #8B7927",
"9%	c #3A3315",
"0%	c #211D0C",
"a%	c #292412",
"b%	c #464645",
"c%	c #282728",
"d%	c #A2A2A2",
"e%	c #E9E8E2",
"f%	c #434240",
"g%	c #B0AEA3",
"h%	c #ECE7D4",
"i%	c #C1BCA7",
"j%	c #ABA590",
"k%	c #A6A189",
"l%	c #A7A184",
"m%	c #A49C7C",
"n%	c #A09874",
"o%	c #9C936A",
"p%	c #978D62",
"q%	c #908657",
"r%	c #8B804E",
"s%	c #877B46",
"t%	c #84783F",
"u%	c #7D6F2E",
"v%	c #746727",
"w%	c #5B4F18",
"x%	c #16140B",
"y%	c #2C270C",
"z%	c #353435",
"A%	c #434242",
"B%	c #303030",
"C%	c #CCCBC4",
"D%	c #F4F1E7",
"E%	c #DCD9CD",
"F%	c #494841",
"G%	c #6D6B5F",
"H%	c #CDC6AB",
"I%	c #CEC6A5",
"J%	c #BBB490",
"K%	c #ADA580",
"L%	c #A49C73",
"M%	c #9A9067",
"N%	c #93895C",
"O%	c #82763A",
"P%	c #7F7032",
"Q%	c #7B6B2A",
"R%	c #726423",
"S%	c #85731E",
"T%	c #776617",
"U%	c #1B180C",
"V%	c #241F08",
"W%	c #23200F",
"X%	c #41413F",
"Y%	c #373735",
"Z%	c #3B3B39",
"`%	c #C7C4B6",
" &	c #E8E3CE",
".&	c #D9D4BF",
"+&	c #747161",
"@&	c #0A0803",
"#&	c #14120F",
"$&	c #5B5846",
"%&	c #8E8666",
"&&	c #A0976C",
"*&	c #9D9363",
"=&	c #9C915D",
"-&	c #8D814E",
";&	c #84783C",
">&	c #807234",
",&	c #7D6E2D",
"'&	c #70621E",
")&	c #857118",
"!&	c #776513",
"~&	c #231E0D",
"{&	c #1E1B07",
"]&	c #2A2408",
"^&	c #4B4A46",
"/&	c #B3AF9B",
"(&	c #DBD3B3",
"_&	c #D5CDAB",
":&	c #A9A382",
"<&	c #54513A",
"[&	c #0E0C03",
"}&	c #1E1B0B",
"|&	c #4C4629",
"1&	c #968A4A",
"2&	c #736422",
"3&	c #76661B",
"4&	c #897416",
"5&	c #6F5E11",
"6&	c #201C0B",
"7&	c #2C2606",
"8&	c #474640",
"9&	c #36342F",
"0&	c #23221F",
"a&	c #787562",
"b&	c #B8AF88",
"c&	c #CABF8D",
"d&	c #C2B682",
"e&	c #AEA36E",
"f&	c #7E754A",
"g&	c #605831",
"h&	c #4E4724",
"i&	c #605729",
"j&	c #847537",
"k&	c #7A6B2B",
"l&	c #786B24",
"m&	c #7B6B1D",
"n&	c #7F6B12",
"o&	c #4D410E",
"p&	c #211C07",
"q&	c #2C2506",
"r&	c #3E3C34",
"s&	c #3E3C31",
"t&	c #1B1B16",
"u&	c #413F32",
"v&	c #756E51",
"w&	c #9E9360",
"x&	c #ADA061",
"y&	c #AD9E59",
"z&	c #AC9B52",
"A&	c #AC9B4A",
"B&	c #9B8B39",
"C&	c #847326",
"D&	c #857522",
"E&	c #84721B",
"F&	c #796715",
"G&	c #55480F",
"H&	c #2C250B",
"I&	c #272205",
"J&	c #292307",
"K&	c #27261F",
"L&	c #3F3C2E",
"M&	c #2E2C20",
"N&	c #211F17",
"O&	c #2A281D",
"P&	c #443F28",
"Q&	c #5F572F",
"R&	c #63592C",
"S&	c #665A27",
"T&	c #5C501B",
"U&	c #524714",
"V&	c #37300E",
"W&	c #211D0B",
"X&	c #191609",
"Y&	c #221D07",
"Z&	c #2B2606",
"`&	c #1E1A08",
" *	c #2F2B1F",
".*	c #353121",
"+*	c #2F2C1C",
"@*	c #272415",
"#*	c #1E1C11",
"$*	c #1E1B0F",
"%*	c #1D1A0D",
"&*	c #1D1B0A",
"**	c #201D09",
"=*	c #262109",
"-*	c #282307",
";*	c #221F12",
">*	c #2A2713",
",*	c #2B2611",
"'*	c #29240E",
")*	c #28240D",
"!*	c #27220A",
"~*	c #26210A",
"                        . + @ # $ % & *                         ",
"                  = - ; > , ' ) ! ~ { ] ^ / (                   ",
"              _ : < [ } | 1 2 3 4 5 6 7 8 9 0 a b               ",
"            ; c d e f g h i j k l m n o p q r s t u             ",
"          v w x y z A B C D E F G H I J K L M N O P Q           ",
"        v R S T U V W X Y Z `  ...+.@.#.$.%.&.*.=.-.;.>.        ",
"      _ ,.'.).!.~.{.].^./.(._.:.<.[.}.|.1.2.3.4.5.6.7.8.9.      ",
"    0.a.b.c.d.e.f.g.h.i.j.k.l.m.n.o.p.q.r.s.t.u.v.w.x.y.z.A.    ",
"    B.C.D.E.F.G.H.I.J.K.L.M.N.O.P.Q.R.S.T.U.V.t.W.X.Y.Z.`. +    ",
"  .+++@+#+$+%+&+*+=+-+;+>+,+'+)+!+~+{+]+^+/+(+_+t.:+<+[+}+|+1+  ",
"  2+3+4+5+6+7+8+9+0+a+b+c+d+e+f+g+h+i+j+k+l+m+n+o+p+q+r+s+t+u+  ",
"  v+w+x+y+z+A+L.B+C+D+E+F+G+H+t.t.I+J+K+L+M+N+O+[+P+Q+R+S+T+U+  ",
"V+W+X+Y+Z+`+ @.@+@@@#@$@%@&@*@=@-@;@>@,@'@)@!@~@{@]@^@/@(@_@:@<@",
"[@}@|@1@2@3@4@c+5@6@7@8@9@0@a@b@c@d@e@f@g@h@i@j@k@l@m@n@o@p@q@r@",
"s@t@u@v@w@x@y@z@A@B@C@D@E@F@G@H@I@J@K@L@M@N@O@P@Q@R@S@T@U@V@W@X@",
"Y@Z@`@ #.#+#@###$#%#&#t.*#=#-#;#>#K@,#'#t.)#!#~#{#]#^#/#(#_#:#:#",
"<#[#}#|#1#2#3#4#5#6#7#8#9#0#a#b#c#d#e#f#g#h#i#j#k#l#m#n#o#p#q#r#",
"s#t#u#v#w#x#y#z#A#B#C#D#E#F#G#H#I#J#K#L#M#N#O#P#Q#y@R#S#T#U#V#W#",
"X#Y#Z#`# $.$+$@$C##$$$%$&$*$=$-$;$>$,$$ '$)$!$~${$]$a+^$/$($_$:$",
"<$[$}$|$1$2$3$4$5$6$7$L@8$9$0$a$b$c$d$t.e$f$g$h$i$j$k$Z+Y+l$m$n$",
"  U+o$p$q$r$s$t$u$v$w$x$t.y$z$A$B$C$D$E$t.F$G$H$I$A+J$y+K$L$-@  ",
"  M$N$O$P$Q$R$S$T$U$V$W$X$Y$~#Z$`$6@ %.%+%@%#%$%%%&%*%=%-%;%>%  ",
"  s$,%'%)%!%~%t.{%]%^%/%(%_%:%<%[%}%|%1%2%3%4%5%&+6%7%8%9%0%a%  ",
"    b%c%d%Y.e%f%t.g%h%i%j%k%l%m%n%o%p%q%r%s%t%H.u%v%E.w%x%y%    ",
"    z%A%B%C%D%E%F%t.G%H%I%J%K%L%M%N%`+j.5%O%P%Q%R%S%T%U%V%W%    ",
"      X%Y%Z%`% &.&+&@&#&$&%&&&*&=&-&J$;&>&,&{.'&)&!&~&{&]&      ",
"        ^&N$,%/&(&_&:&<&;$[&}&G@|&1&Z Y X 2&3&4&5&6&' 7&        ",
"          8&9&0&a&b&c&d&e&f&g&h&i&j&k&l&m&)&n&o&;$p&q&          ",
"            r&s&t&u&v&w&x&y&z&A&B&C&D&E&F&G&H&G@I&J&            ",
"              K&L&M&N&O&P&Q&R&S&3 T&U&V&W&X&Y&Z&`&              ",
"                   *.*+*@*;@#*$*%*b.&***=*-*,.                  ",
"                        ;*>*,*'*)*!*~*R                         "};
